Coordinates
version=1
nRows=18
nColumns=63
inDegrees=yes

Units are S.I. units (second, meters, Newtons, ...)
If the header above contains a line with 'inDegrees', this indicates whether rotational values are in degrees (yes) or radians (no).

endheader
time	pelvis_tilt	pelvis_list	pelvis_rotation	pelvis_tx	pelvis_ty	pelvis_tz	hip_flexion_r	hip_adduction_r	hip_rotation_r	knee_angle_r	knee_angle_r_beta	ankle_angle_r	subtalar_angle_r	mtp_angle_r	hip_flexion_l	hip_adduction_l	hip_rotation_l	knee_angle_l	knee_angle_l_beta	ankle_angle_l	subtalar_angle_l	mtp_angle_l	L5_S1_Flex_Ext	L5_S1_Lat_Bending	L5_S1_axial_rotation	L4_L5_Flex_Ext	L4_L5_Lat_Bending	L4_L5_axial_rotation	L3_L4_Flex_Ext	L3_L4_Lat_Bending	L3_L4_axial_rotation	L2_L3_Flex_Ext	L2_L3_Lat_Bending	L2_L3_axial_rotation	L1_L2_Flex_Ext	L1_L2_Lat_Bending	L1_L2_axial_rotation	L1_T12_Flex_Ext	L1_T12_Lat_Bending	L1_T12_axial_rotation	Abs_r3	Abs_r2	Abs_r1	Abs_t1	Abs_t2	neck_flexion	neck_bending	neck_rotation	arm_flex_r	arm_add_r	arm_rot_r	elbow_flex_r	pro_sup_r	wrist_flex_r	wrist_dev_r	arm_flex_l	arm_add_l	arm_rot_l	elbow_flex_l	pro_sup_l	wrist_flex_l	wrist_dev_l
0.000000	-6.575167	-5.409734	96.747748	0.305543	0.786860	0.861474	-0.614863	-0.061486	-7.047956	1.115237	0.019465	16.851167	2.170915	0.000000	3.889560	1.500173	3.083045	9.979157	0.174169	14.493079	1.245708	0.000000	0.018840	-0.125529	0.521570	0.034988	-0.166954	0.554168	0.030952	-0.305212	0.554168	0.021532	-0.305212	0.456374	0.017495	-0.255979	0.423776	0.010765	-0.194445	0.391178	0.134573	-1.420012	2.900818	0.000000	0.000000	15.727042	-0.473996	-10.102532	9.721833	-7.746597	54.058921	44.802749	35.788785	11.872367	11.667433	10.312532	-10.510504	51.006681	55.791927	87.949893	17.701744	8.348413
0.016949	-6.807213	-5.329443	96.508444	0.305840	0.786647	0.862267	-0.696384	-0.316107	-6.572730	1.189807	0.020766	17.523335	2.571646	0.000000	3.295499	1.737438	2.646295	8.860166	0.154639	14.490759	1.944371	0.000000	0.005636	-0.148573	0.512723	0.010466	-0.197602	0.544768	0.009259	-0.361241	0.544768	0.006441	-0.361241	0.448632	0.005233	-0.302971	0.416587	0.003220	-0.230140	0.384542	0.040256	-1.680690	2.851610	0.000000	0.000000	15.303297	-0.421593	-9.766999	10.179728	-7.784403	55.552390	44.649863	34.522967	11.067844	11.217178	10.216375	-10.552793	50.361490	55.905307	87.999706	17.289733	8.285457
0.033898	-6.986978	-5.276480	96.318742	0.306056	0.786429	0.862834	-0.747391	-0.520081	-6.387286	1.252908	0.021867	18.131513	3.149970	0.000000	2.778388	1.926845	2.435797	7.852851	0.137058	14.409257	2.306411	0.000000	-0.001966	-0.166226	0.505055	-0.003650	-0.221080	0.536621	-0.003229	-0.404161	0.536621	-0.002246	-0.404161	0.441923	-0.001825	-0.338967	0.410357	-0.001123	-0.257484	0.378791	-0.014040	-1.880379	2.808964	0.000000	0.000000	15.026494	-0.368698	-9.486902	10.534900	-7.809605	56.626247	44.521609	33.820859	10.549389	10.904159	10.163075	-10.565500	49.833336	55.985337	88.004927	16.932773	8.246830
0.050847	-7.120028	-5.247515	96.174130	0.306201	0.786206	0.863199	-0.772128	-0.678350	-6.453351	1.306006	0.022794	18.677130	3.873967	0.000000	2.332667	2.073316	2.426745	6.952563	0.121345	14.258889	2.369275	0.000000	-0.004644	-0.179061	0.498186	-0.008624	-0.238151	0.529323	-0.007630	-0.435368	0.529323	-0.005308	-0.435368	0.435913	-0.004312	-0.365140	0.404776	-0.002654	-0.277365	0.373640	-0.033172	-2.025570	2.770762	0.000000	0.000000	14.880487	-0.315405	-9.255527	10.797664	-7.823344	57.325474	44.416460	33.610199	10.282546	10.712956	10.146980	-10.553156	49.411292	56.036500	87.972031	16.628279	8.230023
0.067797	-7.211930	-5.239220	96.070097	0.306283	0.785981	0.863384	-0.774842	-0.795857	-6.732653	1.350566	0.023572	19.161616	4.711720	0.000000	1.952780	2.181771	2.594334	6.154651	0.107419	14.049974	2.170408	0.000000	-0.003080	-0.187652	0.491736	-0.005719	-0.249577	0.522469	-0.005059	-0.456257	0.522469	-0.003520	-0.456257	0.430269	-0.002860	-0.382660	0.399535	-0.001760	-0.290673	0.368802	-0.021997	-2.122757	2.734887	0.000000	0.000000	14.849128	-0.261805	-9.066160	10.978332	-7.826758	57.695050	44.332888	33.818724	10.232860	10.628144	10.162440	-10.520295	49.084430	56.063282	87.907493	16.373666	8.232527
0.084746	-7.268251	-5.248267	96.002129	0.306310	0.785754	0.863412	-0.759780	-0.877547	-7.186919	1.388053	0.024226	19.586402	5.631310	0.000000	1.633168	2.257133	2.913757	5.454466	0.095198	13.792828	1.747256	0.000000	0.002048	-0.192574	0.485323	0.003803	-0.256123	0.515655	0.003364	-0.468224	0.515655	0.002340	-0.468224	0.424657	0.001901	-0.392696	0.394325	0.001170	-0.298297	0.363992	0.014626	-2.178433	2.699220	0.000000	0.000000	14.916271	-0.207990	-8.912086	11.087219	-7.820987	57.779955	44.269366	34.374171	10.365877	10.634302	10.203804	-10.471448	48.841820	56.070165	87.817787	16.166350	8.251835
0.101695	-7.294556	-5.271327	95.965717	0.306291	0.785527	0.863308	-0.731186	-0.928361	-7.777879	1.419933	0.024782	19.952917	6.600819	0.000000	1.368273	2.304323	3.360208	4.847356	0.084602	13.497768	1.137264	0.000000	0.010058	-0.194400	0.478566	0.018678	-0.258552	0.508477	0.016524	-0.472664	0.508477	0.011495	-0.472664	0.418746	0.009340	-0.396420	0.388835	0.005747	-0.301125	0.358925	0.071842	-2.199090	2.661643	0.000000	0.000000	15.065766	-0.154052	-8.786590	11.134639	-7.807169	57.625170	44.224367	35.204276	10.647142	10.716008	10.265420	-10.411148	48.672534	56.061633	87.709389	16.003745	8.285437
0.118644	-7.296414	-5.305073	95.956347	0.306234	0.785301	0.863095	-0.693307	-0.953244	-8.467259	1.447669	0.025267	20.262591	7.588330	0.000000	1.152537	2.328262	3.908883	4.328671	0.075550	13.175113	0.377880	0.000000	0.020271	-0.193704	0.471086	0.037645	-0.257627	0.500529	0.033303	-0.470973	0.500529	0.023167	-0.470973	0.412200	0.018823	-0.395002	0.382757	0.011583	-0.300048	0.353314	0.144791	-2.191221	2.620037	0.000000	0.000000	15.281468	-0.100082	-8.682958	11.130905	-7.786443	57.275675	44.196364	36.236777	11.042198	10.857839	10.341637	-10.343928	48.565645	56.042172	87.588772	15.883268	8.330825
0.135593	-7.279391	-5.346174	95.969507	0.306149	0.785078	0.862794	-0.650389	-0.957137	-9.216787	1.472729	0.025704	20.516854	8.561923	0.000000	0.980403	2.333872	4.534975	3.893762	0.067959	12.835178	-0.493453	0.000000	0.032006	-0.191061	0.462500	0.059439	-0.254111	0.491406	0.052583	-0.464546	0.491406	0.036580	-0.464546	0.404687	0.029721	-0.389612	0.375781	0.018288	-0.295953	0.346875	0.228618	-2.161320	2.572286	0.000000	0.000000	15.547228	-0.046173	-8.594476	11.086332	-7.759948	56.776449	44.183828	37.399411	11.516593	11.044373	10.426806	-10.274319	48.510223	56.016264	87.462411	15.802333	8.385490
0.152542	-7.249053	-5.391304	96.000687	0.306043	0.784859	0.862431	-0.606678	-0.944985	-9.988192	1.496576	0.026120	20.717136	9.489680	0.000000	0.846312	2.326073	5.213678	3.537978	0.061749	12.488281	-1.439286	0.000000	0.044585	-0.187044	0.452428	0.082798	-0.248768	0.480705	0.073248	-0.454779	0.480705	0.050956	-0.454779	0.395875	0.041401	-0.381420	0.367598	0.025476	-0.289731	0.339321	0.318463	-2.115878	2.516271	0.000000	0.000000	15.846900	0.007583	-8.514429	11.011233	-7.728824	56.172475	44.185232	38.619914	12.035870	11.260187	10.515274	-10.206855	48.495340	55.988393	87.336782	15.758356	8.446924
0.169492	-7.210967	-5.437133	96.045374	0.305924	0.784646	0.862028	-0.566421	-0.921730	-10.743201	1.520677	0.026541	20.864867	10.339683	0.000000	0.744706	2.309788	5.920187	3.256669	0.056840	12.144740	-2.422176	0.000000	0.057326	-0.182227	0.440490	0.106459	-0.242362	0.468021	0.094180	-0.443067	0.468021	0.065517	-0.443067	0.385429	0.053233	-0.371598	0.357898	0.032756	-0.282270	0.330367	0.409471	-2.061389	2.449873	0.000000	0.000000	16.164336	0.061095	-8.436102	10.915922	-7.694209	55.508731	44.199050	39.826025	12.565575	11.489859	10.601391	-10.146066	48.510069	55.963044	87.218359	15.748751	8.512619
0.186441	-7.185001	-5.453369	96.076724	0.305854	0.784452	0.861672	-0.568260	-0.899746	-11.307284	1.561491	0.027253	20.952069	10.928580	0.000000	0.647141	2.299135	6.529228	3.070373	0.053588	11.866952	-3.270323	0.000000	0.065825	-0.178246	0.417574	0.122244	-0.237068	0.443673	0.108145	-0.433388	0.443673	0.075232	-0.433388	0.365378	0.061125	-0.363480	0.339279	0.037613	-0.276104	0.313181	0.470184	-2.016359	2.322423	0.000000	0.000000	16.396414	0.134418	-8.251942	10.894407	-7.640149	55.113178	44.194384	40.566104	12.910689	11.722279	10.584238	-10.118862	48.367192	56.002843	87.121291	15.790771	8.658608
0.203390	-7.163456	-5.475205	96.131795	0.305770	0.784249	0.861320	-0.573794	-0.876441	-11.749978	1.602535	0.027970	20.985563	11.353643	0.000000	0.584476	2.294139	7.188247	2.946289	0.051422	11.600977	-4.144595	0.000000	0.074374	-0.174240	0.382408	0.138121	-0.231740	0.406308	0.122190	-0.423648	0.406308	0.085003	-0.423648	0.334607	0.069064	-0.355311	0.310706	0.042498	-0.269898	0.286806	0.531249	-1.971042	2.126836	0.000000	0.000000	16.647223	0.200546	-7.986146	10.891056	-7.585553	54.773641	44.190040	41.090854	13.241963	11.922132	10.546658	-10.121904	48.215345	56.067589	87.068390	15.882206	8.778841
0.220339	-7.155838	-5.497833	96.179750	0.305718	0.784051	0.860971	-0.584990	-0.862604	-12.053929	1.647254	0.028750	20.970768	11.633150	0.000000	0.539063	2.301548	7.860333	2.863963	0.049986	11.320088	-5.059552	0.000000	0.082574	-0.171785	0.347937	0.153348	-0.228474	0.369683	0.135661	-0.417677	0.369683	0.094374	-0.417677	0.304445	0.076678	-0.350303	0.282699	0.047183	-0.266094	0.260952	0.589819	-1.943262	1.935119	0.000000	0.000000	16.877251	0.267485	-7.714076	10.853426	-7.528516	54.407879	44.215798	41.419023	13.430177	12.056534	10.531541	-10.155963	48.154746	56.119475	87.066142	16.001511	8.782859
0.237288	-7.164124	-5.506797	96.233079	0.305664	0.783880	0.860682	-0.615201	-0.861944	-12.284219	1.697243	0.029622	20.927354	11.826748	0.000000	0.507351	2.315963	8.306438	2.841229	0.049589	11.141021	-5.612502	0.000000	0.087329	-0.171082	0.315071	0.162178	-0.227539	0.334763	0.143472	-0.415969	0.334763	0.099808	-0.415969	0.275687	0.081093	-0.348871	0.255995	0.049900	-0.265006	0.236303	0.623780	-1.935315	1.752330	0.000000	0.000000	17.083600	0.326344	-7.463480	10.801527	-7.497590	54.104312	44.308564	41.426301	13.370972	12.130290	10.546654	-10.214344	48.204502	56.167861	87.086303	16.052318	8.739410
0.254237	-7.184654	-5.505764	96.278840	0.305618	0.783711	0.860457	-0.660517	-0.868866	-12.304033	1.745363	0.030462	20.831150	11.750015	0.000000	0.479957	2.341469	8.726411	2.852315	0.049782	10.980154	-6.124872	0.000000	0.089698	-0.172283	0.292153	0.166578	-0.229136	0.310412	0.147365	-0.418889	0.310412	0.102516	-0.418889	0.255634	0.083293	-0.351320	0.237374	0.051253	-0.266866	0.219114	0.640703	-1.948900	1.624865	0.000000	0.000000	17.241286	0.360054	-7.315689	10.714175	-7.475706	53.764168	44.402600	41.342443	13.309791	12.132304	10.593057	-10.272320	48.341370	56.188344	87.140342	16.140207	8.667433
0.271186	-7.221811	-5.486508	96.312803	0.305585	0.783561	0.860340	-0.724562	-0.891727	-12.211120	1.795894	0.031344	20.700747	11.529408	0.000000	0.456566	2.382452	9.047809	2.911851	0.050821	10.885736	-6.482206	0.000000	0.087923	-0.176117	0.278856	0.163282	-0.234236	0.296284	0.144449	-0.428211	0.296284	0.100487	-0.428211	0.243999	0.081645	-0.359138	0.226570	0.050239	-0.272805	0.209142	0.628025	-1.992271	1.550911	0.000000	0.000000	17.341735	0.392257	-7.263846	10.642060	-7.484274	53.555980	44.518205	40.984770	13.143003	12.055183	10.658567	-10.328255	48.528554	56.203803	87.212980	16.227318	8.646252
0.288136	-7.272277	-5.452646	96.330549	0.305549	0.783423	0.860329	-0.802486	-0.927606	-11.947827	1.844716	0.032196	20.527001	11.087403	0.000000	0.426308	2.440797	9.378259	2.987149	0.052136	10.807519	-6.856970	0.000000	0.082892	-0.181918	0.274544	0.153939	-0.241951	0.291703	0.136184	-0.442316	0.291703	0.094738	-0.442316	0.240226	0.076974	-0.370967	0.223067	0.047365	-0.281791	0.205908	0.592092	-2.057894	1.526929	0.000000	0.000000	17.382051	0.407364	-7.311353	10.597776	-7.501603	53.439898	44.579003	40.602228	13.107562	11.895675	10.723003	-10.366280	48.702514	56.214348	87.297669	16.350503	8.682916
